<svg xmlns="http://www.w3.org/2000/svg" viewBox="0 0 64 64" fill="none" role="img" aria-label="StoryForge">
  <defs>
    <linearGradient id="sf-bg" x1="12" y1="8" x2="52" y2="56" gradientUnits="userSpaceOnUse">
      <stop stop-color="#7FB4FF"/>
      <stop offset="1" stop-color="#3F86F5"/>
    </linearGradient>
    <linearGradient id="sf-page" x1="18" y1="18" x2="46" y2="48" gradientUnits="userSpaceOnUse">
      <stop stop-color="#FFFFFF"/>
      <stop offset="1" stop-color="#EAF3FF"/>
    </linearGradient>
  </defs>
  <rect x="4" y="4" width="56" height="56" rx="16" fill="url(#sf-bg)"/>
  <!-- open book -->
  <path d="M32 20.5c-3.2-2.4-7.4-3.5-12.2-3.5-1.4 0-2.5 1.1-2.5 2.5v22.2c0 1.2 1 2.2 2.2 2.2 4.4 0 8.2 1 10.7 2.8.5.4 1.2.4 1.7 0 2.5-1.8 6.3-2.8 10.7-2.8 1.2 0 2.2-1 2.2-2.2V19.5c0-1.4-1.1-2.5-2.5-2.5-4.8 0-9 1.1-12.3 3.5Z" fill="url(#sf-page)"/>
  <path d="M32 20.5v26.7" stroke="#5B9DFF" stroke-width="1.6" stroke-linecap="round" opacity="0.55"/>
  <!-- forge spark -->
  <path d="M45.5 14.5 47 18.2l3.7 1.5-3.7 1.5-1.5 3.7-1.5-3.7-3.7-1.5 3.7-1.5 1.5-3.7Z" fill="#FFE08A"/>
  <circle cx="20" cy="16" r="1.6" fill="#FFE08A" opacity="0.9"/>
</svg>
